<svg viewBox="0 0 995 400" xmlns="http://www.w3.org/2000/svg"><g><g><g><g><g><line x1="50" y1="378" x2="45" y2="378" style="visibility: inherit;" fill="rgb(0, 0, 0)" stroke="rgb(204, 204, 204)" stroke-width="1px"></line><line x1="50" y1="343.6363636363636" x2="45" y2="343.6363636363636" style="visibility: inherit;" fill="rgb(0, 0, 0)" stroke="rgb(204, 204, 204)" stroke-width="1px"></line><line x1="50" y1="309.27272727272725" x2="45" y2="309.27272727272725" style="visibility: inherit;" fill="rgb(0, 0, 0)" stroke="rgb(204, 204, 204)" stroke-width="1px"></line><line x1="50" y1="274.9090909090909" x2="45" y2="274.9090909090909" style="visibility: inherit;" fill="rgb(0, 0, 0)" stroke="rgb(204, 204, 204)" stroke-width="1px"></line><line x1="50" y1="240.54545454545453" x2="45" y2="240.54545454545453" style="visibility: inherit;" fill="rgb(0, 0, 0)" stroke="rgb(204, 204, 204)" stroke-width="1px"></line><line x1="50" y1="206.18181818181816" x2="45" y2="206.18181818181816" style="visibility: inherit;" fill="rgb(0, 0, 0)" stroke="rgb(204, 204, 204)" stroke-width="1px"></line><line x1="50" y1="171.81818181818184" x2="45" y2="171.81818181818184" style="visibility: inherit;" fill="rgb(0, 0, 0)" stroke="rgb(204, 204, 204)" stroke-width="1px"></line><line x1="50" y1="137.45454545454547" x2="45" y2="137.45454545454547" style="visibility: inherit;" fill="rgb(0, 0, 0)" stroke="rgb(204, 204, 204)" stroke-width="1px"></line><line x1="50" y1="103.09090909090912" x2="45" y2="103.09090909090912" style="visibility: inherit;" fill="rgb(0, 0, 0)" stroke="rgb(204, 204, 204)" stroke-width="1px"></line><line x1="50" y1="68.72727272727275" x2="45" y2="68.72727272727275" style="visibility: inherit;" fill="rgb(0, 0, 0)" stroke="rgb(204, 204, 204)" stroke-width="1px"></line><line x1="50" y1="34.363636363636374" x2="45" y2="34.363636363636374" style="visibility: inherit;" fill="rgb(0, 0, 0)" stroke="rgb(204, 204, 204)" stroke-width="1px"></line><line x1="50" y1="0" x2="45" y2="0" style="visibility: inherit;" fill="rgb(0, 0, 0)" stroke="rgb(204, 204, 204)" stroke-width="1px"></line></g><g transform="translate(40, 0)"><text x="0" y="378" dx="0em" dy="0.3em" style="text-anchor: end; visibility: hidden; font-family: &quot;Helvetica Neue&quot;, sans-serif; font-size: 12px; font-weight: 200;" fill="rgb(50, 49, 63)" stroke="none" stroke-width="1px">0.3</text><text x="0" y="343.6363636363636" dx="0em" dy="0.3em" style="text-anchor: end; visibility: inherit; font-family: &quot;Helvetica Neue&quot;, sans-serif; font-size: 12px; font-weight: 200;" fill="rgb(50, 49, 63)" stroke="none" stroke-width="1px">0.35</text><text x="0" y="309.27272727272725" dx="0em" dy="0.3em" style="text-anchor: end; visibility: inherit; font-family: &quot;Helvetica Neue&quot;, sans-serif; font-size: 12px; font-weight: 200;" fill="rgb(50, 49, 63)" stroke="none" stroke-width="1px">0.4</text><text x="0" y="274.9090909090909" dx="0em" dy="0.3em" style="text-anchor: end; visibility: inherit; font-family: &quot;Helvetica Neue&quot;, sans-serif; font-size: 12px; font-weight: 200;" fill="rgb(50, 49, 63)" stroke="none" stroke-width="1px">0.45</text><text x="0" y="240.54545454545453" dx="0em" dy="0.3em" style="text-anchor: end; visibility: inherit; font-family: &quot;Helvetica Neue&quot;, sans-serif; font-size: 12px; font-weight: 200;" fill="rgb(50, 49, 63)" stroke="none" stroke-width="1px">0.5</text><text x="0" y="206.18181818181816" dx="0em" dy="0.3em" style="text-anchor: end; visibility: inherit; font-family: &quot;Helvetica Neue&quot;, sans-serif; font-size: 12px; font-weight: 200;" fill="rgb(50, 49, 63)" stroke="none" stroke-width="1px">0.55</text><text x="0" y="171.81818181818184" dx="0em" dy="0.3em" style="text-anchor: end; visibility: inherit; font-family: &quot;Helvetica Neue&quot;, sans-serif; font-size: 12px; font-weight: 200;" fill="rgb(50, 49, 63)" stroke="none" stroke-width="1px">0.6</text><text x="0" y="137.45454545454547" dx="0em" dy="0.3em" style="text-anchor: end; visibility: inherit; font-family: &quot;Helvetica Neue&quot;, sans-serif; font-size: 12px; font-weight: 200;" fill="rgb(50, 49, 63)" stroke="none" stroke-width="1px">0.65</text><text x="0" y="103.09090909090912" dx="0em" dy="0.3em" style="text-anchor: end; visibility: inherit; font-family: &quot;Helvetica Neue&quot;, sans-serif; font-size: 12px; font-weight: 200;" fill="rgb(50, 49, 63)" stroke="none" stroke-width="1px">0.7</text><text x="0" y="68.72727272727275" dx="0em" dy="0.3em" style="text-anchor: end; visibility: inherit; font-family: &quot;Helvetica Neue&quot;, sans-serif; font-size: 12px; font-weight: 200;" fill="rgb(50, 49, 63)" stroke="none" stroke-width="1px">0.75</text><text x="0" y="34.363636363636374" dx="0em" dy="0.3em" style="text-anchor: end; visibility: inherit; font-family: &quot;Helvetica Neue&quot;, sans-serif; font-size: 12px; font-weight: 200;" fill="rgb(50, 49, 63)" stroke="none" stroke-width="1px">0.8</text><text x="0" y="0" dx="0em" dy="0.3em" style="text-anchor: end; visibility: hidden; font-family: &quot;Helvetica Neue&quot;, sans-serif; font-size: 12px; font-weight: 200;" fill="rgb(50, 49, 63)" stroke="none" stroke-width="1px">0.85</text></g><line x1="50" y1="0" x2="50" y2="378" fill="rgb(0, 0, 0)" stroke="rgb(204, 204, 204)" stroke-width="1px"></line></g></g><g transform="translate(50, 0)" clip-path="url(#clip_0)"><clipPath id="clip_0"><rect width="945" height="378"></rect></clipPath><g><g><g><line x1="0" y1="0" x2="0" y2="378" fill="rgb(0, 0, 0)" stroke="rgb(60, 60, 60)" stroke-width="1px" opacity="0.25"></line><line x1="78.75" y1="0" x2="78.75" y2="378" fill="rgb(0, 0, 0)" stroke="rgb(60, 60, 60)" stroke-width="1px" opacity="0.25"></line><line x1="157.5" y1="0" x2="157.5" y2="378" fill="rgb(0, 0, 0)" stroke="rgb(60, 60, 60)" stroke-width="1px" opacity="0.25"></line><line x1="236.25" y1="0" x2="236.25" y2="378" fill="rgb(0, 0, 0)" stroke="rgb(60, 60, 60)" stroke-width="1px" opacity="0.25"></line><line x1="315" y1="0" x2="315" y2="378" fill="rgb(0, 0, 0)" stroke="rgb(60, 60, 60)" stroke-width="1px" opacity="0.25"></line><line x1="393.75" y1="0" x2="393.75" y2="378" fill="rgb(0, 0, 0)" stroke="rgb(60, 60, 60)" stroke-width="1px" opacity="0.25"></line><line x1="472.5" y1="0" x2="472.5" y2="378" fill="rgb(0, 0, 0)" stroke="rgb(60, 60, 60)" stroke-width="1px" opacity="0.25"></line><line x1="551.25" y1="0" x2="551.25" y2="378" fill="rgb(0, 0, 0)" stroke="rgb(60, 60, 60)" stroke-width="1px" opacity="0.25"></line><line x1="630" y1="0" x2="630" y2="378" fill="rgb(0, 0, 0)" stroke="rgb(60, 60, 60)" stroke-width="1px" opacity="0.25"></line><line x1="708.75" y1="0" x2="708.75" y2="378" fill="rgb(0, 0, 0)" stroke="rgb(60, 60, 60)" stroke-width="1px" opacity="0.25"></line><line x1="787.5" y1="0" x2="787.5" y2="378" fill="rgb(0, 0, 0)" stroke="rgb(60, 60, 60)" stroke-width="1px" opacity="0.25"></line><line x1="866.25" y1="0" x2="866.25" y2="378" fill="rgb(0, 0, 0)" stroke="rgb(60, 60, 60)" stroke-width="1px" opacity="0.25"></line><line x1="945" y1="0" x2="945" y2="378" fill="rgb(0, 0, 0)" stroke="rgb(60, 60, 60)" stroke-width="1px" opacity="0.25"></line></g><g><line x1="0" y1="378" x2="945" y2="378" fill="rgb(0, 0, 0)" stroke="rgb(60, 60, 60)" stroke-width="1px" opacity="0.25"></line><line x1="0" y1="343.6363636363636" x2="945" y2="343.6363636363636" fill="rgb(0, 0, 0)" stroke="rgb(60, 60, 60)" stroke-width="1px" opacity="0.25"></line><line x1="0" y1="309.27272727272725" x2="945" y2="309.27272727272725" fill="rgb(0, 0, 0)" stroke="rgb(60, 60, 60)" stroke-width="1px" opacity="0.25"></line><line x1="0" y1="274.9090909090909" x2="945" y2="274.9090909090909" fill="rgb(0, 0, 0)" stroke="rgb(60, 60, 60)" stroke-width="1px" opacity="0.25"></line><line x1="0" y1="240.54545454545453" x2="945" y2="240.54545454545453" fill="rgb(0, 0, 0)" stroke="rgb(60, 60, 60)" stroke-width="1px" opacity="0.25"></line><line x1="0" y1="206.18181818181816" x2="945" y2="206.18181818181816" fill="rgb(0, 0, 0)" stroke="rgb(60, 60, 60)" stroke-width="1px" opacity="0.25"></line><line x1="0" y1="171.81818181818184" x2="945" y2="171.81818181818184" fill="rgb(0, 0, 0)" stroke="rgb(60, 60, 60)" stroke-width="1px" opacity="0.25"></line><line x1="0" y1="137.45454545454547" x2="945" y2="137.45454545454547" fill="rgb(0, 0, 0)" stroke="rgb(60, 60, 60)" stroke-width="1px" opacity="0.25"></line><line x1="0" y1="103.09090909090912" x2="945" y2="103.09090909090912" fill="rgb(0, 0, 0)" stroke="rgb(60, 60, 60)" stroke-width="1px" opacity="0.25"></line><line x1="0" y1="68.72727272727275" x2="945" y2="68.72727272727275" fill="rgb(0, 0, 0)" stroke="rgb(60, 60, 60)" stroke-width="1px" opacity="0.25"></line><line x1="0" y1="34.363636363636374" x2="945" y2="34.363636363636374" fill="rgb(0, 0, 0)" stroke="rgb(60, 60, 60)" stroke-width="1px" opacity="0.25"></line><line x1="0" y1="0" x2="945" y2="0" fill="rgb(0, 0, 0)" stroke="rgb(60, 60, 60)" stroke-width="1px" opacity="0.25"></line></g></g></g><g><g><line x1="0" y1="584.1818181818181" x2="945" y2="584.1818181818181" fill="rgb(0, 0, 0)" stroke="rgb(153, 153, 153)" stroke-width="1.5px"></line></g></g><g><g><line x1="78.75" y1="0" x2="78.75" y2="378" fill="rgb(0, 0, 0)" stroke="rgb(153, 153, 153)" stroke-width="1.5px"></line></g></g><g><g><g><g><g><path stroke="rgb(0, 119, 187)" stroke-width="2px" d="M78.75,-43.272693287242475L86.625,26.676668530160782L94.5,63.15900179627653L102.375,70.71640859297253L110.25,72.22636912109868L118.125,78.58336144975004L126,83.90601854275428L133.875,66.61594172865449L141.75,85.87180220153346L149.625,93.70332192701676L157.5,67.4635424325981L165.375,66.12186923637881L173.25,81.04059381457199L181.125,105.01811290061926L189,106.68021831669341L196.875,114.74767157510536L204.75,114.00953663745378L212.625,108.65739427273007L220.5,116.35982511307157L228.375,102.68307786273397L236.25,105.00393803273454L244.12500000000003,55.052001121490434L252,91.46727176289949L259.875,107.71447196316944L267.75,118.83281751192698L275.625,122.4958310107371L283.5,65.98759853975366L291.375,65.06792509947462L299.25,80.05285424636298L307.125,73.00727606826598L315,96.45070065908362L322.875,93.67277753589815L330.75,107.93181751815422L338.625,113.5514194544159L346.5,116.77400365287491L354.375,128.30327695414195L362.25,138.0267389356577L370.125,136.86028564374544L378,134.91348259254224L385.875,134.1100680506561L393.75,141.30436810528457L401.625,140.27842082896888L409.5,152.97002134121144L417.375,140.90197683004092L425.25,143.26367297571142L433.125,151.99034030427615L441,164.08585441758754L448.875,155.12553778712555L456.75,170.0139522910339L464.625,177.73190764066288L472.5,166.5193087654458L480.375,173.57305952187235L488.25000000000006,135.4680362045286L496.125,142.23309625330842L504,138.761257163271L511.87499999999994,125.12699176979811L519.75,82.10601683921288L527.625,120.7405052971531L535.5,113.2145415691271L543.375,156.92164429114882L551.25,144.70571370176413L559.125,159.12780927949157L567,114.06728778354807L574.875,144.79815636916473L582.75,160.08010569880153L590.625,159.6428034545981L598.5,169.93260378546086L606.375,92.33710766270605L614.25,77.97862862932863L622.125,69.17161364624172L630,90.61241249385859L637.875,118.90935570845676L645.75,148.70794857813357L653.625,131.47897644585254L661.5,142.74793730280874L669.375,131.91916003613196L677.25,156.89834173520788L685.125,176.3241408304757L693,196.35557968399874L700.875,179.3210210219304L708.75,150.38983088389352L716.625,135.62698092363559L724.5,155.15503472269944L732.375,157.12195335301215L740.25,156.77048554593708L748.125,179.1675673833317L756,176.53356672644122L763.875,176.7122046505942L771.75,163.8798680430698L779.625,163.30449671196132L787.5,175.1107645582714L795.375,185.6609864476981L803.25,167.8314653975329L811.125,167.39193936785875L819,185.66898673805812L826.875,200.65676369144992L834.75,193.58992830223346L842.625,195.86771201674046L850.5,196.74595256904195L858.375,192.20869979362803" style="fill: none;" fill="none"></path></g><g><path stroke="rgb(255, 112, 67)" stroke-width="2px" d="M78.75,-93.95317112315792L86.625,41.46396894888443L94.5,89.43021581699315L102.375,117.71269718577526L110.25,137.42674590712375L118.125,152.1775151316792L126,162.1062462681294L133.875,170.89168718430696L141.75,179.17160711901556L149.625,184.78303747390723L157.5,186.48866360583258L165.375,193.6559743967984L173.25,196.2840911953847L181.125,195.2505152190183L189,196.91405307103426L196.875,204.01975231413422L204.75,200.04807571789905L212.625,202.5692532855677L220.5,206.1244668615595L228.375,210.20428224692648L236.25,213.42632481942897L244.12500000000003,219.07319586648873L252,215.9795639238684L259.875,213.03026180851896L267.75,217.76756524764306L275.625,217.91609892441264L283.5,216.9946856415926L291.375,219.2714975677617L299.25,221.5384295148057L307.125,218.28678719521915L315,220.97327945295947L322.875,226.31084395661526L330.75,228.5263637546003L338.625,231.06367387604973L346.5,227.82647582718113L354.375,228.92920673224216L362.25,230.72394379060898L370.125,237.6485303317133L378,235.33248204246757L385.875,238.41293171991595L393.75,238.7031357612806L401.625,242.03368253647395L409.5,239.46889305177785L417.375,246.3425438029634L425.25,245.43152372965085L433.125,250.97703467437134L441,246.45231967655155L448.875,251.2272536779309L456.75,256.12498635967046L464.625,255.97167997366287L472.5,260.96217986719813L480.375,259.9403795700407L488.25000000000006,260.7046373243372L496.125,261.1501242545937L504,263.5484055308045L511.87499999999994,266.16047888616606L519.75,261.3814962071813L527.625,265.76759370993005L535.5,268.16936680681874L543.375,269.8506965112043L551.25,273.8685278837513L559.125,279.0243987744015L567,276.2009139925489L574.875,277.1305759775245L582.75,283.11369821539597L590.625,280.40655159962273L598.5,283.342063041239L606.375,281.44991330497913L614.25,286.3328544216416L622.125,285.67251841310843L630,292.25415280999164L637.875,293.67019921593L645.75,289.8084420694944L653.625,287.1138002464685L661.5,293.00322955459166L669.375,292.88305366348567L677.25,293.2485898361557L685.125,299.2804098491533L693,298.03881711532466L700.875,299.7051880568091L708.75,309.02285757015L716.625,308.2386638412955L724.5,308.4948112801579L732.375,309.18244114244277L740.25,309.263410244187L748.125,312.37718778587487L756,313.9938248716204L763.875,314.16273526249415L771.75,318.06672314886555L779.625,317.76786292949987L787.5,319.31623077552774L795.375,316.3870044197678L803.25,322.163399688257L811.125,322.94405341096285L819,325.45928518524124L826.875,325.7520691861098L834.75,324.9309878013526L842.625,322.4827932416414L850.5,326.2635041826918L858.375,329.1631386035871" style="fill: none;" fill="none"></path></g></g></g></g><g opacity="0.2"><g><g><g><path stroke="rgb(0, 119, 187)" stroke-width="2px" d="M78.75,-43.272693287242475L86.625,68.64628562060273L94.5,98.18204173174774L102.375,79.60391898588699L110.25,74.19777358662003L118.125,87.37737035751343L126,91.51750334826386L133.875,41.40684374895966L141.75,114.27045614069158L149.625,105.33221600272441L157.5,28.341866059736788L165.375,64.11666076833552L173.25,103.36996845765549L181.125,140.9374170736833L189,109.17142269828105L196.875,126.84316166964445L204.75,112.9026465849443L212.625,100.63053963401103L220.5,127.9122979857705L228.375,82.16920709609985L236.25,108.48510100624782L244.12500000000003,-19.874260555614057L252,146.08945876901802L259.875,132.0850797999989L267.75,135.51025681062177L275.625,127.9903356378729L283.5,-18.774605577642205L291.375,63.68841635097158L299.25,102.53023416345769L307.125,62.43891269510442L315,131.6158297712153L322.875,89.50589340383357L330.75,129.32037578929555L338.625,121.98082195628774L346.5,121.60787981206721L354.375,145.597186608748L362.25,152.61193175749347L370.125,135.11060571670532L378,131.9932780265808L385.875,132.9049462405118L393.75,152.09581817280164L401.625,138.73949991572988L409.5,172.00742210041392L417.375,122.79991006851196L425.25,146.80621719360352L433.125,165.0803412957625L441,182.229125586423L448.875,141.6850628419356L456.75,192.34657404639503L464.625,189.30884066495028L472.5,149.70041045275602L480.375,184.15368565646085L488.25000000000006,78.31050122867936L496.125,152.3806863264604L504,133.55349852822044L511.87499999999994,104.67559367960149L519.75,17.574554443359432L527.625,178.6922379840504L535.5,101.92559597708964L543.375,222.48229837417603L551.25,126.38181781768799L559.125,180.76095264608213L567,46.47650553963405L574.875,190.8944592475891L582.75,183.00302969325674L590.625,158.98685008829293L598.5,185.36730428175494L606.375,-24.056136521426026L614.25,56.440910079262494L622.125,55.961091171611486L630,122.77361076528379L637.875,161.3547705303539L645.75,193.40583788264883L653.625,105.63551824743098L661.5,159.65137858824298L669.375,115.67599413611674L677.25,194.3671142838218L685.125,205.46283947337758L693,226.40273796428335L700.875,153.76918302882802L708.75,106.99304567683828L716.625,113.48270598324865L724.5,184.44711542129517L732.375,160.07233129848134L740.25,156.24328383532438L748.125,212.76319013942373L756,172.58256574110553L763.875,176.98016153682363L771.75,144.63136313178325L779.625,162.44143971529874L787.5,192.8201663277366L795.375,201.48631928183815L803.25,141.08718382228506L811.125,166.7326503233476L819,213.08455779335716L826.875,223.13842912153765L834.75,182.9896752184088L842.625,199.28438758850098L850.5,198.06331339749423L858.375,185.40282063050702" style="fill: none;" fill="none"></path></g><g><path stroke="rgb(255, 112, 67)" stroke-width="2px" d="M78.75,-93.9531711231578L86.625,122.7142529921098L94.5,135.47781281037763L102.375,150.97289527546278L110.25,163.1654079177163L118.125,172.58313924616036L126,176.30449065295133L133.875,183.70094438032672L141.75,191.38288073106247L149.625,193.11535757238215L157.5,189.03163290023804L165.375,204.36793639443138L173.25,200.21768513592806L181.125,193.70217613740402L189,199.40740442276L196.875,214.67328968915072L204.75,194.0922415039756L212.625,206.35037951035932L220.5,211.45674562454224L228.375,216.32363241369075L236.25,218.2592119737105L244.12500000000003,227.54331662438133L252,211.339177088304L259.875,208.60634357279L267.75,224.87348673560402L275.625,218.13889880613849L283.5,215.61256807500666L291.375,222.68671196157283L299.25,224.9388253472068L307.125,213.40932551297274L315,225.00301694869995L322.875,234.3171896501021L330.75,231.8496431870894L338.625,234.8696388764815L346.5,222.9706788930026L354.375,230.5833030613986L362.25,233.41604935039175L370.125,248.03541007908908L378,231.8584096214988L385.875,243.03360622579402L393.75,239.1384418227456L401.625,247.029502695257L409.5,235.62170882658526L417.375,256.6530199267647L425.25,244.06499361991882L433.125,259.29530109058726L441,239.66524718024513L448.875,258.3896546797319L456.75,263.47158538211477L464.625,255.7417203946547L472.5,268.44792970744044L480.375,258.407679124312L488.25000000000006,261.85102395577866L496.125,261.81835464997727L504,267.14582744511694L511.87499999999994,270.0785889192061L519.75,254.21302218870682L527.625,272.34673996405166L535.5,271.77202645215124L543.375,272.37269106778234L551.25,279.89527494257146L559.125,286.75820511037654L567,271.9656868197701L574.875,278.52506895498794L582.75,292.0883815722032L590.625,276.345831675963L598.5,287.74533020366323L606.375,278.61168870058924L614.25,293.6572660966353L622.125,284.6820144003088L630,302.12660440531647L637.875,295.79426882483745L645.75,284.015806349841L653.625,283.0718375119296L661.5,301.8373735167763L669.375,292.70278982682663L677.25,293.7968940951607L685.125,308.3281398686496L693,296.17642801458186L700.875,302.20474446903575L708.75,322.9993618401614L716.625,307.0623732480136L724.5,308.8790324384516L732.375,310.21388593587005L740.25,309.38486389680344L748.125,317.0478540984067L756,316.4187805002386L763.875,314.41610084880483L771.75,323.9227049784227L779.625,317.31957260045135L787.5,321.63878254456955L795.375,311.99316488612783L803.25,330.8279925909909L811.125,324.11503399502146L819,329.2321328466589L826.875,326.1912451874126L834.75,323.6993657242168L842.625,318.81050140207464L850.5,331.9345705942674L858.375,333.51259023492986" style="fill: none;" fill="none"></path></g></g></g></g></g></g><g transform="translate(50, 378)" clip-path="url(#clip_1)"><clipPath id="clip_1"><rect width="945" height="22"></rect></clipPath><g><g><line x1="0" y1="0" x2="0" y2="5" style="visibility: inherit;" fill="rgb(0, 0, 0)" stroke="rgb(204, 204, 204)" stroke-width="1px"></line><line x1="78.75" y1="0" x2="78.75" y2="5" style="visibility: inherit;" fill="rgb(0, 0, 0)" stroke="rgb(204, 204, 204)" stroke-width="1px"></line><line x1="157.5" y1="0" x2="157.5" y2="5" style="visibility: inherit;" fill="rgb(0, 0, 0)" stroke="rgb(204, 204, 204)" stroke-width="1px"></line><line x1="236.25" y1="0" x2="236.25" y2="5" style="visibility: inherit;" fill="rgb(0, 0, 0)" stroke="rgb(204, 204, 204)" stroke-width="1px"></line><line x1="315" y1="0" x2="315" y2="5" style="visibility: inherit;" fill="rgb(0, 0, 0)" stroke="rgb(204, 204, 204)" stroke-width="1px"></line><line x1="393.75" y1="0" x2="393.75" y2="5" style="visibility: inherit;" fill="rgb(0, 0, 0)" stroke="rgb(204, 204, 204)" stroke-width="1px"></line><line x1="472.5" y1="0" x2="472.5" y2="5" style="visibility: inherit;" fill="rgb(0, 0, 0)" stroke="rgb(204, 204, 204)" stroke-width="1px"></line><line x1="551.25" y1="0" x2="551.25" y2="5" style="visibility: inherit;" fill="rgb(0, 0, 0)" stroke="rgb(204, 204, 204)" stroke-width="1px"></line><line x1="630" y1="0" x2="630" y2="5" style="visibility: inherit;" fill="rgb(0, 0, 0)" stroke="rgb(204, 204, 204)" stroke-width="1px"></line><line x1="708.75" y1="0" x2="708.75" y2="5" style="visibility: inherit;" fill="rgb(0, 0, 0)" stroke="rgb(204, 204, 204)" stroke-width="1px"></line><line x1="787.5" y1="0" x2="787.5" y2="5" style="visibility: inherit;" fill="rgb(0, 0, 0)" stroke="rgb(204, 204, 204)" stroke-width="1px"></line><line x1="866.25" y1="0" x2="866.25" y2="5" style="visibility: inherit;" fill="rgb(0, 0, 0)" stroke="rgb(204, 204, 204)" stroke-width="1px"></line><line x1="945" y1="0" x2="945" y2="5" style="visibility: inherit;" fill="rgb(0, 0, 0)" stroke="rgb(204, 204, 204)" stroke-width="1px"></line></g><g transform="translate(0, 8)"><text x="0" y="0" dx="0em" dy="0.95em" style="text-anchor: middle; visibility: hidden; font-family: &quot;Helvetica Neue&quot;, sans-serif; font-size: 12px; font-weight: 200;" fill="rgb(50, 49, 63)" stroke="none" stroke-width="1px">-10</text><text x="78.75" y="0" dx="0em" dy="0.95em" style="text-anchor: middle; visibility: inherit; font-family: &quot;Helvetica Neue&quot;, sans-serif; font-size: 12px; font-weight: 200;" fill="rgb(50, 49, 63)" stroke="none" stroke-width="1px">0</text><text x="157.5" y="0" dx="0em" dy="0.95em" style="text-anchor: middle; visibility: inherit; font-family: &quot;Helvetica Neue&quot;, sans-serif; font-size: 12px; font-weight: 200;" fill="rgb(50, 49, 63)" stroke="none" stroke-width="1px">10</text><text x="236.25" y="0" dx="0em" dy="0.95em" style="text-anchor: middle; visibility: inherit; font-family: &quot;Helvetica Neue&quot;, sans-serif; font-size: 12px; font-weight: 200;" fill="rgb(50, 49, 63)" stroke="none" stroke-width="1px">20</text><text x="315" y="0" dx="0em" dy="0.95em" style="text-anchor: middle; visibility: inherit; font-family: &quot;Helvetica Neue&quot;, sans-serif; font-size: 12px; font-weight: 200;" fill="rgb(50, 49, 63)" stroke="none" stroke-width="1px">30</text><text x="393.75" y="0" dx="0em" dy="0.95em" style="text-anchor: middle; visibility: inherit; font-family: &quot;Helvetica Neue&quot;, sans-serif; font-size: 12px; font-weight: 200;" fill="rgb(50, 49, 63)" stroke="none" stroke-width="1px">40</text><text x="472.5" y="0" dx="0em" dy="0.95em" style="text-anchor: middle; visibility: inherit; font-family: &quot;Helvetica Neue&quot;, sans-serif; font-size: 12px; font-weight: 200;" fill="rgb(50, 49, 63)" stroke="none" stroke-width="1px">50</text><text x="551.25" y="0" dx="0em" dy="0.95em" style="text-anchor: middle; visibility: inherit; font-family: &quot;Helvetica Neue&quot;, sans-serif; font-size: 12px; font-weight: 200;" fill="rgb(50, 49, 63)" stroke="none" stroke-width="1px">60</text><text x="630" y="0" dx="0em" dy="0.95em" style="text-anchor: middle; visibility: inherit; font-family: &quot;Helvetica Neue&quot;, sans-serif; font-size: 12px; font-weight: 200;" fill="rgb(50, 49, 63)" stroke="none" stroke-width="1px">70</text><text x="708.75" y="0" dx="0em" dy="0.95em" style="text-anchor: middle; visibility: inherit; font-family: &quot;Helvetica Neue&quot;, sans-serif; font-size: 12px; font-weight: 200;" fill="rgb(50, 49, 63)" stroke="none" stroke-width="1px">80</text><text x="787.5" y="0" dx="0em" dy="0.95em" style="text-anchor: middle; visibility: inherit; font-family: &quot;Helvetica Neue&quot;, sans-serif; font-size: 12px; font-weight: 200;" fill="rgb(50, 49, 63)" stroke="none" stroke-width="1px">90</text><text x="866.25" y="0" dx="0em" dy="0.95em" style="text-anchor: middle; visibility: inherit; font-family: &quot;Helvetica Neue&quot;, sans-serif; font-size: 12px; font-weight: 200;" fill="rgb(50, 49, 63)" stroke="none" stroke-width="1px">100</text><text x="945" y="0" dx="0em" dy="0.95em" style="text-anchor: middle; visibility: hidden; font-family: &quot;Helvetica Neue&quot;, sans-serif; font-size: 12px; font-weight: 200;" fill="rgb(50, 49, 63)" stroke="none" stroke-width="1px">110</text></g><line x1="0" y1="0" x2="945" y2="0" fill="rgb(0, 0, 0)" stroke="rgb(204, 204, 204)" stroke-width="1px"></line></g></g></g></g></svg>