<svg viewBox="0 0 995 400" xmlns="http://www.w3.org/2000/svg"><g><g><g><g><g><line x1="40" y1="378" x2="35" y2="378" style="visibility: inherit;" fill="rgb(0, 0, 0)" stroke="rgb(204, 204, 204)" stroke-width="1px"></line><line x1="40" y1="330.75" x2="35" y2="330.75" style="visibility: inherit;" fill="rgb(0, 0, 0)" stroke="rgb(204, 204, 204)" stroke-width="1px"></line><line x1="40" y1="283.49999999999994" x2="35" y2="283.49999999999994" style="visibility: inherit;" fill="rgb(0, 0, 0)" stroke="rgb(204, 204, 204)" stroke-width="1px"></line><line x1="40" y1="236.25000000000003" x2="35" y2="236.25000000000003" style="visibility: inherit;" fill="rgb(0, 0, 0)" stroke="rgb(204, 204, 204)" stroke-width="1px"></line><line x1="40" y1="188.99999999999997" x2="35" y2="188.99999999999997" style="visibility: inherit;" fill="rgb(0, 0, 0)" stroke="rgb(204, 204, 204)" stroke-width="1px"></line><line x1="40" y1="141.75000000000003" x2="35" y2="141.75000000000003" style="visibility: inherit;" fill="rgb(0, 0, 0)" stroke="rgb(204, 204, 204)" stroke-width="1px"></line><line x1="40" y1="94.5" x2="35" y2="94.5" style="visibility: inherit;" fill="rgb(0, 0, 0)" stroke="rgb(204, 204, 204)" stroke-width="1px"></line><line x1="40" y1="47.24999999999994" x2="35" y2="47.24999999999994" style="visibility: inherit;" fill="rgb(0, 0, 0)" stroke="rgb(204, 204, 204)" stroke-width="1px"></line><line x1="40" y1="0" x2="35" y2="0" style="visibility: inherit;" fill="rgb(0, 0, 0)" stroke="rgb(204, 204, 204)" stroke-width="1px"></line></g><g transform="translate(30, 0)"><text x="0" y="378" dx="0em" dy="0.3em" style="text-anchor: end; visibility: hidden; font-family: &quot;Helvetica Neue&quot;, sans-serif; font-size: 12px; font-weight: 200;" fill="rgb(50, 49, 63)" stroke="none" stroke-width="1px">0.9</text><text x="0" y="330.75" dx="0em" dy="0.3em" style="text-anchor: end; visibility: inherit; font-family: &quot;Helvetica Neue&quot;, sans-serif; font-size: 12px; font-weight: 200;" fill="rgb(50, 49, 63)" stroke="none" stroke-width="1px">1</text><text x="0" y="283.49999999999994" dx="0em" dy="0.3em" style="text-anchor: end; visibility: inherit; font-family: &quot;Helvetica Neue&quot;, sans-serif; font-size: 12px; font-weight: 200;" fill="rgb(50, 49, 63)" stroke="none" stroke-width="1px">1.1</text><text x="0" y="236.25000000000003" dx="0em" dy="0.3em" style="text-anchor: end; visibility: inherit; font-family: &quot;Helvetica Neue&quot;, sans-serif; font-size: 12px; font-weight: 200;" fill="rgb(50, 49, 63)" stroke="none" stroke-width="1px">1.2</text><text x="0" y="188.99999999999997" dx="0em" dy="0.3em" style="text-anchor: end; visibility: inherit; font-family: &quot;Helvetica Neue&quot;, sans-serif; font-size: 12px; font-weight: 200;" fill="rgb(50, 49, 63)" stroke="none" stroke-width="1px">1.3</text><text x="0" y="141.75000000000003" dx="0em" dy="0.3em" style="text-anchor: end; visibility: inherit; font-family: &quot;Helvetica Neue&quot;, sans-serif; font-size: 12px; font-weight: 200;" fill="rgb(50, 49, 63)" stroke="none" stroke-width="1px">1.4</text><text x="0" y="94.5" dx="0em" dy="0.3em" style="text-anchor: end; visibility: inherit; font-family: &quot;Helvetica Neue&quot;, sans-serif; font-size: 12px; font-weight: 200;" fill="rgb(50, 49, 63)" stroke="none" stroke-width="1px">1.5</text><text x="0" y="47.24999999999994" dx="0em" dy="0.3em" style="text-anchor: end; visibility: inherit; font-family: &quot;Helvetica Neue&quot;, sans-serif; font-size: 12px; font-weight: 200;" fill="rgb(50, 49, 63)" stroke="none" stroke-width="1px">1.6</text><text x="0" y="0" dx="0em" dy="0.3em" style="text-anchor: end; visibility: hidden; font-family: &quot;Helvetica Neue&quot;, sans-serif; font-size: 12px; font-weight: 200;" fill="rgb(50, 49, 63)" stroke="none" stroke-width="1px">1.7</text></g><line x1="40" y1="0" x2="40" y2="378" fill="rgb(0, 0, 0)" stroke="rgb(204, 204, 204)" stroke-width="1px"></line></g></g><g transform="translate(40, 0)" clip-path="url(#clip_0)"><clipPath id="clip_0"><rect width="955" height="378"></rect></clipPath><g><g><g><line x1="0" y1="0" x2="0" y2="378" fill="rgb(0, 0, 0)" stroke="rgb(60, 60, 60)" stroke-width="1px" opacity="0.25"></line><line x1="79.58333333333333" y1="0" x2="79.58333333333333" y2="378" fill="rgb(0, 0, 0)" stroke="rgb(60, 60, 60)" stroke-width="1px" opacity="0.25"></line><line x1="159.16666666666666" y1="0" x2="159.16666666666666" y2="378" fill="rgb(0, 0, 0)" stroke="rgb(60, 60, 60)" stroke-width="1px" opacity="0.25"></line><line x1="238.75" y1="0" x2="238.75" y2="378" fill="rgb(0, 0, 0)" stroke="rgb(60, 60, 60)" stroke-width="1px" opacity="0.25"></line><line x1="318.3333333333333" y1="0" x2="318.3333333333333" y2="378" fill="rgb(0, 0, 0)" stroke="rgb(60, 60, 60)" stroke-width="1px" opacity="0.25"></line><line x1="397.9166666666667" y1="0" x2="397.9166666666667" y2="378" fill="rgb(0, 0, 0)" stroke="rgb(60, 60, 60)" stroke-width="1px" opacity="0.25"></line><line x1="477.5" y1="0" x2="477.5" y2="378" fill="rgb(0, 0, 0)" stroke="rgb(60, 60, 60)" stroke-width="1px" opacity="0.25"></line><line x1="557.0833333333334" y1="0" x2="557.0833333333334" y2="378" fill="rgb(0, 0, 0)" stroke="rgb(60, 60, 60)" stroke-width="1px" opacity="0.25"></line><line x1="636.6666666666666" y1="0" x2="636.6666666666666" y2="378" fill="rgb(0, 0, 0)" stroke="rgb(60, 60, 60)" stroke-width="1px" opacity="0.25"></line><line x1="716.25" y1="0" x2="716.25" y2="378" fill="rgb(0, 0, 0)" stroke="rgb(60, 60, 60)" stroke-width="1px" opacity="0.25"></line><line x1="795.8333333333334" y1="0" x2="795.8333333333334" y2="378" fill="rgb(0, 0, 0)" stroke="rgb(60, 60, 60)" stroke-width="1px" opacity="0.25"></line><line x1="875.4166666666666" y1="0" x2="875.4166666666666" y2="378" fill="rgb(0, 0, 0)" stroke="rgb(60, 60, 60)" stroke-width="1px" opacity="0.25"></line><line x1="955" y1="0" x2="955" y2="378" fill="rgb(0, 0, 0)" stroke="rgb(60, 60, 60)" stroke-width="1px" opacity="0.25"></line></g><g><line x1="0" y1="378" x2="955" y2="378" fill="rgb(0, 0, 0)" stroke="rgb(60, 60, 60)" stroke-width="1px" opacity="0.25"></line><line x1="0" y1="330.75" x2="955" y2="330.75" fill="rgb(0, 0, 0)" stroke="rgb(60, 60, 60)" stroke-width="1px" opacity="0.25"></line><line x1="0" y1="283.49999999999994" x2="955" y2="283.49999999999994" fill="rgb(0, 0, 0)" stroke="rgb(60, 60, 60)" stroke-width="1px" opacity="0.25"></line><line x1="0" y1="236.25000000000003" x2="955" y2="236.25000000000003" fill="rgb(0, 0, 0)" stroke="rgb(60, 60, 60)" stroke-width="1px" opacity="0.25"></line><line x1="0" y1="188.99999999999997" x2="955" y2="188.99999999999997" fill="rgb(0, 0, 0)" stroke="rgb(60, 60, 60)" stroke-width="1px" opacity="0.25"></line><line x1="0" y1="141.75000000000003" x2="955" y2="141.75000000000003" fill="rgb(0, 0, 0)" stroke="rgb(60, 60, 60)" stroke-width="1px" opacity="0.25"></line><line x1="0" y1="94.5" x2="955" y2="94.5" fill="rgb(0, 0, 0)" stroke="rgb(60, 60, 60)" stroke-width="1px" opacity="0.25"></line><line x1="0" y1="47.24999999999994" x2="955" y2="47.24999999999994" fill="rgb(0, 0, 0)" stroke="rgb(60, 60, 60)" stroke-width="1px" opacity="0.25"></line><line x1="0" y1="0" x2="955" y2="0" fill="rgb(0, 0, 0)" stroke="rgb(60, 60, 60)" stroke-width="1px" opacity="0.25"></line></g></g></g><g><g><line x1="0" y1="803.25" x2="955" y2="803.25" fill="rgb(0, 0, 0)" stroke="rgb(153, 153, 153)" stroke-width="1.5px"></line></g></g><g><g><line x1="79.58333333333333" y1="0" x2="79.58333333333333" y2="378" fill="rgb(0, 0, 0)" stroke="rgb(153, 153, 153)" stroke-width="1.5px"></line></g></g><g><g><g><g><g><path stroke="rgb(0, 119, 187)" stroke-width="2px" d="M79.58333333333333,-29.501475870609283L87.54166666666666,32.34838479012251L95.5,61.8233269367899L103.45833333333334,68.79531721946057L111.41666666666667,62.7180818299052L119.375,74.45405274842454L127.33333333333333,75.59230392003991L135.29166666666666,64.08356945052702L143.25,84.38654086492494L151.20833333333331,96.86141500870804L159.16666666666666,59.919768663310094L167.125,58.37317022133976L175.08333333333331,76.14768558328302L183.04166666666669,107.12355589837256L191,102.01008566163523L198.95833333333334,122.49903467587214L206.91666666666669,119.22056420182406L214.875,119.62023640586881L222.83333333333334,124.2388913100103L230.79166666666666,105.70416406594592L238.75,115.40236149514766L246.70833333333337,60.073176752612994L254.66666666666666,96.31628120730858L262.625,112.1745183443374L270.5833333333333,118.56031499897045L278.5416666666667,128.6736039215511L286.5,69.22162925156135L294.45833333333337,61.493819515538576L302.41666666666663,70.53656865988137L310.375,71.21529724006666L318.3333333333333,96.06251279565981L326.2916666666667,85.69317668436514L334.25,101.158768544557L342.2083333333333,103.48323333364505L350.16666666666663,117.14007720643156L358.125,131.97738539558307L366.08333333333337,147.0197747647758L374.0416666666667,146.40370757947068L382,146.57000159997864L389.9583333333333,140.4422648096375L397.9166666666667,149.84614242737493L405.875,146.19763384658341L413.83333333333337,156.03002213760948L421.79166666666663,133.60469383402432L429.75,134.58477884781874L437.7083333333333,147.5585071944491L445.6666666666667,163.69693908175404L453.625,151.42631483694524L461.5833333333333,169.84930515684042L469.54166666666663,171.98985378980774L477.5,157.73724692480894L485.4583333333333,176.99638691798765L493.41666666666674,135.13176557566914L501.375,147.00996771543194L509.3333333333333,137.5042469685552L517.2916666666666,140.48149968298048L525.25,83.83836980527411L533.2083333333334,119.75651504913907L541.1666666666666,101.37248784494216L549.125,157.02321134920282L557.0833333333334,140.2934779579359L565.0416666666666,164.0443969163254L573,120.54368157344737L580.9583333333333,150.66663197969024L588.9166666666667,166.53709411796706L596.875,159.14626901255113L604.8333333333333,165.94413466993606L612.7916666666667,62.98619947280662L620.75,59.703104194677906L628.7083333333334,51.802235947058875L636.6666666666666,72.84964834809671L644.625,109.9344282338642L652.5833333333334,157.34854732689985L660.5416666666666,140.5757150813206L668.5,145.85512140776308L676.4583333333334,132.785782262001L684.4166666666666,161.90778596658322L692.375,186.9334332433868L700.3333333333333,202.01947743222289L708.2916666666667,176.5057392270874L716.25,142.30418337294518L724.2083333333333,129.20956886356507L732.1666666666667,144.4954209598627L740.125,147.9188467188315L748.0833333333334,151.19031822226265L756.0416666666666,174.61114468301426L764,177.729922354967L771.9583333333334,183.70353001400863L779.9166666666666,162.03763321664957L787.875,162.65394081847097L795.8333333333334,173.0561312328352L803.7916666666666,181.25665754619683L811.75,172.45960496987965L819.7083333333333,164.1149647899036L827.6666666666667,190.60990802452355L835.625,205.69489526751872L843.5833333333333,195.6558378696634L851.5416666666667,194.17044037343229L859.5,194.18087471581197L867.4583333333334,199.48415909443315" style="fill: none;" fill="none"></path></g><g><path stroke="rgb(255, 112, 67)" stroke-width="2px" d="M79.58333333333333,-166.2518666982652L87.54166666666666,8.450379230082092L95.5,70.90968854938234L103.45833333333334,105.42424145516225L111.41666666666667,128.89356985644778L119.375,145.841163344065L127.33333333333333,158.0088592481459L135.29166666666666,168.64877215670077L143.25,176.56415767514844L151.20833333333331,182.9404501381336L159.16666666666666,183.88121622224034L167.125,192.3535644795832L175.08333333333331,194.7595755817395L183.04166666666669,192.10706567477484L191,192.6947493703534L198.95833333333334,200.51179161678377L206.91666666666669,197.3970431428638L214.875,200.50979977528755L222.83333333333334,204.30702098631778L230.79166666666666,207.42467975731284L238.75,211.7758706705593L246.70833333333337,217.40527530954554L254.66666666666666,215.00810845092633L262.625,210.49044215675255L270.5833333333333,215.2498380073181L278.5416666666667,213.1471590013494L286.5,212.57350258593283L294.45833333333337,217.91275793705498L302.41666666666663,219.43404195567936L310.375,217.70485592916827L318.3333333333333,219.64394679181467L326.2916666666667,224.54420676197415L334.25,226.3710826218231L342.2083333333333,227.5793201304012L350.16666666666663,225.47793953242711L358.125,224.59238013679015L366.08333333333337,224.7762995317291L374.0416666666667,233.59038512133372L382,233.974430134096L389.9583333333333,236.08811870511687L397.9166666666667,236.8105516635987L405.875,240.54207924805513L413.83333333333337,236.93269438521617L421.79166666666663,242.1503941722405L429.75,242.49110038925923L437.7083333333333,247.0568539136499L445.6666666666667,244.01311792325606L453.625,248.10475209597976L461.5833333333333,255.1866751149907L469.54166666666663,255.0937627575159L477.5,258.98385915885433L485.4583333333333,257.9737742050265L493.41666666666674,257.53239906452666L501.375,256.68914702309615L509.3333333333333,261.5415928052304L517.2916666666666,262.83957958736687L525.25,258.6226940662772L533.2083333333334,262.5483555383157L541.1666666666666,267.35712716500035L549.125,269.37883900117924L557.0833333333334,273.7880056769375L565.0416666666666,278.3123287243084L573,276.65511605038853L580.9583333333333,277.4260349565423L588.9166666666667,285.52081205211147L596.875,283.3669579372529L604.8333333333333,286.1562809434965L612.7916666666667,282.38286506458735L620.75,288.8266725499905L628.7083333333334,287.1760125136062L636.6666666666666,294.75657784793884L644.625,296.0032443514711L652.5833333333334,290.33663732476504L660.5416666666666,288.8824569622724L668.5,292.73219551086714L676.4583333333334,293.7909619417207L684.4166666666666,294.0595820669184L692.375,300.9963906958013L700.3333333333333,299.4914102527087L708.2916666666667,302.20000247791916L716.25,311.89713495156474L724.2083333333333,312.5096394132454L732.1666666666667,312.2109811491298L740.125,311.87154887834356L748.0833333333334,312.3194731874416L756.0416666666666,314.9784718992204L764,317.18992411147894L771.9583333333334,317.25458864600273L779.9166666666666,322.1548053755212L787.875,320.7295050581604L795.8333333333334,323.6322187876886L803.7916666666666,320.465971010696L811.75,327.0431749569005L819.7083333333333,328.0727479068413L827.6666666666667,330.24452549266664L835.625,330.45060181646255L843.5833333333333,328.7800380708498L851.5416666666667,326.4747577858997L859.5,332.4494607897421L867.4583333333334,334.2534899980915" style="fill: none;" fill="none"></path></g></g></g></g><g opacity="0.2"><g><g><g><path stroke="rgb(0, 119, 187)" stroke-width="2px" d="M79.58333333333333,-29.501475870609283L87.54166666666666,69.45830118656158L95.5,90.11927139759064L103.45833333333334,76.99437779188156L111.41666666666667,54.783643305301666L119.375,90.68912547826767L127.33333333333333,77.22002130746841L135.29166666666666,47.303724110126495L143.25,114.32948005199432L151.20833333333331,115.38514924049377L159.16666666666666,4.842357158660889L167.125,56.06168907880783L175.08333333333331,102.75142174959183L183.04166666666669,153.5266764163971L191,94.34589099884033L198.95833333333334,153.21800780296326L206.91666666666669,114.30424582958221L214.875,120.2196432352066L222.83333333333334,131.1661700606346L230.79166666666666,77.90376734733582L238.75,129.94912576675415L246.70833333333337,-22.918779730796814L254.66666666666666,150.68022233247757L262.625,135.96168619394302L270.5833333333333,128.1389645934105L278.5416666666667,143.84349417686462L286.5,-19.95618063211441L294.45833333333337,49.902116775512695L302.41666666666663,84.1006840467453L310.375,72.23338973522186L318.3333333333333,133.33332788944244L326.2916666666667,70.13917458057404L334.25,124.35715448856354L342.2083333333333,106.96993035078049L350.16666666666663,137.62534242868423L358.125,154.23334729671478L366.08333333333337,169.5833585858345L374.0416666666667,145.4796068072319L382,146.81944262981415L389.9583333333333,131.25065964460373L397.9166666666667,163.95195883512497L405.875,140.72487097978592L413.83333333333337,170.77860456705093L421.79166666666663,99.96670138835907L429.75,136.05490636825562L437.7083333333333,167.01909971237183L445.6666666666667,187.90458691120148L453.625,133.02037847042084L461.5833333333333,197.48379063606262L469.54166666666663,175.20067673921585L477.5,136.35833662748337L485.4583333333333,205.88509690761566L493.41666666666674,72.33483356237411L501.375,164.827270925045L509.3333333333333,123.24566584825516L517.2916666666666,144.94737875461578L525.25,-1.126325011253357L533.2083333333334,173.63373291492462L541.1666666666666,73.79644703865051L549.125,240.499296605587L557.0833333333334,115.19887787103653L565.0416666666666,199.67077535390854L573,55.29260855913162L580.9583333333333,195.8510575890541L588.9166666666667,190.34278732538223L596.875,148.06003135442734L604.8333333333333,176.1409331560135L612.7916666666667,-91.45070332288742L620.75,54.778461277484894L628.7083333333334,39.95093357563019L636.6666666666666,104.42076694965363L644.625,165.56159806251526L652.5833333333334,228.46972596645355L660.5416666666666,115.41646671295166L668.5,153.7742308974266L676.4583333333334,113.18177354335785L684.4166666666666,205.59079152345657L692.375,224.47190415859222L700.3333333333333,224.648543715477L708.2916666666667,138.235131919384L716.25,91.00184959173203L724.2083333333333,109.56764709949493L732.1666666666667,167.42419910430908L740.125,153.05398535728455L748.0833333333334,156.09752547740936L756.0416666666666,209.7423843741417L764,182.40808886289597L771.9583333333334,192.6639415025711L779.9166666666666,129.5387880206108L787.875,163.57840222120285L795.8333333333334,188.65941685438156L803.7916666666666,193.55744701623917L811.75,159.2640261054039L819.7083333333333,151.59800451993942L827.6666666666667,230.3523228764534L835.625,228.3223761320114L843.5833333333333,180.59725177288055L851.5416666666667,191.94234412908554L859.5,194.19652622938156L867.4583333333334,207.43908566236496" style="fill: none;" fill="none"></path></g><g><path stroke="rgb(255, 112, 67)" stroke-width="2px" d="M79.58333333333333,-166.2518666982652L87.54166666666666,113.2717267870903L95.5,130.87062549591064L103.45833333333334,146.01335567235947L111.41666666666667,159.53512501716614L119.375,169.28578627109528L127.33333333333333,175.40885907411575L135.29166666666666,184.16186732053757L143.25,188.23781383037567L151.20833333333331,192.4085013270378L159.16666666666666,185.28383266925812L167.125,205.01598072052002L175.08333333333331,198.36073619127274L183.04166666666669,188.13349735736847L191,193.57558411359787L198.95833333333334,212.23184180259705L206.91666666666669,192.726238489151L214.875,205.1781443953514L222.83333333333334,210.0022743344307L230.79166666666666,212.10088294744492L238.75,218.30241841077805L246.70833333333337,225.84919703006744L254.66666666666666,211.41240549087524L262.625,203.71399623155594L270.5833333333333,222.38889795541763L278.5416666666667,209.99314945936203L286.5,211.71301943063736L294.45833333333337,225.92163276672363L302.41666666666663,221.71596658229828L310.375,215.1110778450966L318.3333333333333,222.55258244276047L326.2916666666667,231.89459574222565L334.25,229.11139619350433L342.2083333333333,229.39167630672455L350.16666666666663,222.32586872577667L358.125,223.26404106616974L366.08333333333337,225.05217862129211L374.0416666666667,246.81151342391968L382,234.55049765110016L389.9583333333333,239.2586515545845L397.9166666666667,237.8942010998726L405.875,246.1393706202507L413.83333333333337,231.51861709356308L421.79166666666663,249.97694385051727L429.75,243.0021597146988L437.7083333333333,253.90548419952393L445.6666666666667,239.44751393795013L453.625,254.2422033548355L461.5833333333333,265.8095596432686L469.54166666666663,254.95439422130585L477.5,264.81900376081467L485.4583333333333,256.458646774292L493.41666666666674,256.87033635377884L501.375,255.42426896095276L509.3333333333333,268.8202614784241L517.2916666666666,264.7865597605705L525.25,252.29736578464508L533.2083333333334,268.4368477463722L541.1666666666666,274.57028460502625L549.125,272.4114067554474L557.0833333333334,280.40175569057465L565.0416666666666,285.0988132953644L573,274.1692970395088L580.9583333333333,278.582413315773L588.9166666666667,297.6629776954651L596.875,280.13617676496506L604.8333333333333,290.3402654528618L612.7916666666667,276.72274124622345L620.75,298.49238377809525L628.7083333333334,284.70002245903015L636.6666666666666,306.1274258494377L644.625,297.87324410676956L652.5833333333334,281.8367267847061L660.5416666666666,286.7011864185333L668.5,298.5068033337593L676.4583333333334,295.37911158800125L684.4166666666666,294.46251225471497L692.375,311.4016036391258L700.3333333333333,297.2339395880699L708.2916666666667,306.26289081573486L716.25,326.4428336620331L724.2083333333333,313.4283961057663L732.1666666666667,311.7629937529564L740.125,311.36240047216415L748.0833333333334,312.9913596510887L756.0416666666666,318.9669699668884L764,320.5071024298668L771.9583333333334,317.35158544778824L779.9166666666666,329.50513046979904L787.875,318.591554582119L795.8333333333334,327.9862893819809L803.7916666666666,315.7165993452072L811.75,336.90898087620735L819.7083333333333,329.6171073317528L827.6666666666667,333.50219187140465L835.625,330.75971630215645L843.5833333333333,326.2741924524307L851.5416666666667,323.01683735847473L859.5,341.4115152955055L867.4583333333334,336.95953381061554" style="fill: none;" fill="none"></path></g></g></g></g></g></g><g transform="translate(40, 378)" clip-path="url(#clip_1)"><clipPath id="clip_1"><rect width="955" height="22"></rect></clipPath><g><g><line x1="0" y1="0" x2="0" y2="5" style="visibility: inherit;" fill="rgb(0, 0, 0)" stroke="rgb(204, 204, 204)" stroke-width="1px"></line><line x1="79.58333333333333" y1="0" x2="79.58333333333333" y2="5" style="visibility: inherit;" fill="rgb(0, 0, 0)" stroke="rgb(204, 204, 204)" stroke-width="1px"></line><line x1="159.16666666666666" y1="0" x2="159.16666666666666" y2="5" style="visibility: inherit;" fill="rgb(0, 0, 0)" stroke="rgb(204, 204, 204)" stroke-width="1px"></line><line x1="238.75" y1="0" x2="238.75" y2="5" style="visibility: inherit;" fill="rgb(0, 0, 0)" stroke="rgb(204, 204, 204)" stroke-width="1px"></line><line x1="318.3333333333333" y1="0" x2="318.3333333333333" y2="5" style="visibility: inherit;" fill="rgb(0, 0, 0)" stroke="rgb(204, 204, 204)" stroke-width="1px"></line><line x1="397.9166666666667" y1="0" x2="397.9166666666667" y2="5" style="visibility: inherit;" fill="rgb(0, 0, 0)" stroke="rgb(204, 204, 204)" stroke-width="1px"></line><line x1="477.5" y1="0" x2="477.5" y2="5" style="visibility: inherit;" fill="rgb(0, 0, 0)" stroke="rgb(204, 204, 204)" stroke-width="1px"></line><line x1="557.0833333333334" y1="0" x2="557.0833333333334" y2="5" style="visibility: inherit;" fill="rgb(0, 0, 0)" stroke="rgb(204, 204, 204)" stroke-width="1px"></line><line x1="636.6666666666666" y1="0" x2="636.6666666666666" y2="5" style="visibility: inherit;" fill="rgb(0, 0, 0)" stroke="rgb(204, 204, 204)" stroke-width="1px"></line><line x1="716.25" y1="0" x2="716.25" y2="5" style="visibility: inherit;" fill="rgb(0, 0, 0)" stroke="rgb(204, 204, 204)" stroke-width="1px"></line><line x1="795.8333333333334" y1="0" x2="795.8333333333334" y2="5" style="visibility: inherit;" fill="rgb(0, 0, 0)" stroke="rgb(204, 204, 204)" stroke-width="1px"></line><line x1="875.4166666666666" y1="0" x2="875.4166666666666" y2="5" style="visibility: inherit;" fill="rgb(0, 0, 0)" stroke="rgb(204, 204, 204)" stroke-width="1px"></line><line x1="955" y1="0" x2="955" y2="5" style="visibility: inherit;" fill="rgb(0, 0, 0)" stroke="rgb(204, 204, 204)" stroke-width="1px"></line></g><g transform="translate(0, 8)"><text x="0" y="0" dx="0em" dy="0.95em" style="text-anchor: middle; visibility: hidden; font-family: &quot;Helvetica Neue&quot;, sans-serif; font-size: 12px; font-weight: 200;" fill="rgb(50, 49, 63)" stroke="none" stroke-width="1px">-10</text><text x="79.58333333333333" y="0" dx="0em" dy="0.95em" style="text-anchor: middle; visibility: inherit; font-family: &quot;Helvetica Neue&quot;, sans-serif; font-size: 12px; font-weight: 200;" fill="rgb(50, 49, 63)" stroke="none" stroke-width="1px">0</text><text x="159.16666666666666" y="0" dx="0em" dy="0.95em" style="text-anchor: middle; visibility: inherit; font-family: &quot;Helvetica Neue&quot;, sans-serif; font-size: 12px; font-weight: 200;" fill="rgb(50, 49, 63)" stroke="none" stroke-width="1px">10</text><text x="238.75" y="0" dx="0em" dy="0.95em" style="text-anchor: middle; visibility: inherit; font-family: &quot;Helvetica Neue&quot;, sans-serif; font-size: 12px; font-weight: 200;" fill="rgb(50, 49, 63)" stroke="none" stroke-width="1px">20</text><text x="318.3333333333333" y="0" dx="0em" dy="0.95em" style="text-anchor: middle; visibility: inherit; font-family: &quot;Helvetica Neue&quot;, sans-serif; font-size: 12px; font-weight: 200;" fill="rgb(50, 49, 63)" stroke="none" stroke-width="1px">30</text><text x="397.9166666666667" y="0" dx="0em" dy="0.95em" style="text-anchor: middle; visibility: inherit; font-family: &quot;Helvetica Neue&quot;, sans-serif; font-size: 12px; font-weight: 200;" fill="rgb(50, 49, 63)" stroke="none" stroke-width="1px">40</text><text x="477.5" y="0" dx="0em" dy="0.95em" style="text-anchor: middle; visibility: inherit; font-family: &quot;Helvetica Neue&quot;, sans-serif; font-size: 12px; font-weight: 200;" fill="rgb(50, 49, 63)" stroke="none" stroke-width="1px">50</text><text x="557.0833333333334" y="0" dx="0em" dy="0.95em" style="text-anchor: middle; visibility: inherit; font-family: &quot;Helvetica Neue&quot;, sans-serif; font-size: 12px; font-weight: 200;" fill="rgb(50, 49, 63)" stroke="none" stroke-width="1px">60</text><text x="636.6666666666666" y="0" dx="0em" dy="0.95em" style="text-anchor: middle; visibility: inherit; font-family: &quot;Helvetica Neue&quot;, sans-serif; font-size: 12px; font-weight: 200;" fill="rgb(50, 49, 63)" stroke="none" stroke-width="1px">70</text><text x="716.25" y="0" dx="0em" dy="0.95em" style="text-anchor: middle; visibility: inherit; font-family: &quot;Helvetica Neue&quot;, sans-serif; font-size: 12px; font-weight: 200;" fill="rgb(50, 49, 63)" stroke="none" stroke-width="1px">80</text><text x="795.8333333333334" y="0" dx="0em" dy="0.95em" style="text-anchor: middle; visibility: inherit; font-family: &quot;Helvetica Neue&quot;, sans-serif; font-size: 12px; font-weight: 200;" fill="rgb(50, 49, 63)" stroke="none" stroke-width="1px">90</text><text x="875.4166666666666" y="0" dx="0em" dy="0.95em" style="text-anchor: middle; visibility: inherit; font-family: &quot;Helvetica Neue&quot;, sans-serif; font-size: 12px; font-weight: 200;" fill="rgb(50, 49, 63)" stroke="none" stroke-width="1px">100</text><text x="955" y="0" dx="0em" dy="0.95em" style="text-anchor: middle; visibility: hidden; font-family: &quot;Helvetica Neue&quot;, sans-serif; font-size: 12px; font-weight: 200;" fill="rgb(50, 49, 63)" stroke="none" stroke-width="1px">110</text></g><line x1="0" y1="0" x2="955" y2="0" fill="rgb(0, 0, 0)" stroke="rgb(204, 204, 204)" stroke-width="1px"></line></g></g></g></g></svg>